<mxfile host="app.diagrams.net" modified="2023-03-28T08:43:36.804Z" agent="Mozilla/5.0 (Windows NT 10.0; Win64; x64) AppleWebKit/537.36 (KHTML, like Gecko) Chrome/108.0.0.0 Safari/537.36 Edg/108.0.1462.76" version="21.1.1" etag="be12c8TVMrSqxk29mqOd" type="github">
  <diagram name="第 1 页" id="A-UXmNyX01jZ4MiykHV6">
    <mxGraphModel>
      <root>
        <mxCell id="0" />
        <mxCell id="1" parent="0" />
      </root>
    </mxGraphModel>
  </diagram>
</mxfile>
